<svg xmlns="http://www.w3.org/2000/svg" enable-background="new 0 0 3800 3000" viewBox="0 0 3800 3000"><path fill="#e7f0fe" d="M1683.17,1340.68c55.52,265.87,230.06,636.84,588.85,872.74c347.61,246.48,761.92,259.09,1008.15,140.28
			c256.39-115.33,344.71-362.06,274.89-553.95c-70.36-200.7-233.25-337.06-387.97-424.88c-160.9-89.12-313.62-129.71-506.56-168.8
			c-187.83-37.88-386.23-97.33-543.26-179.97c-159.33-76.4-277.29-176-357.23-149.89
			C1687.58,897.63,1625.86,1066.61,1683.17,1340.68z"/><path fill="#e7f0fe" d="M2075.66,1715.1c-38.28-268.89-188.57-650.33-531.43-908.84C1213.21,537.9,800.57,498.64,547.2,601.34
			c-263.29,98.58-367.31,339.11-309.99,535.09c57.29,204.82,211.07,351.38,359.8,448.98c154.83,99.29,304.61,149.63,494.64,201.07
			c185,49.9,379.16,122,530.55,214.58c154.08,86.5,265.38,193.49,346.84,172.58C2042.72,2156.94,2115.19,1992.29,2075.66,1715.1z"/><rect width="495.59" height="255.96" x="1662.46" y="2263.91" fill="#a0c5ff"/><polygon fill="#000141" points="2158.05 2430.02 1662.46 2374.88 1662.46 2263.91 2158.05 2263.91" opacity=".3"/><path fill="#c7dbff" d="M2867.4,2474.95H939.5c-40.6,0-73.52,32.92-73.52,73.52h2074.95
							C2940.92,2507.86,2908.01,2474.95,2867.4,2474.95z"/><path fill="#a0c5ff" d="M3369.32,564.32v1635.93c0,66.69-54.15,120.84-120.84,120.84H656.76c-56.45,0-103.89-38.85-117.14-91.29
						c-2.41-9.48-3.65-19.36-3.65-29.55V564.32c0-66.75,54.15-120.84,120.78-120.84h2591.72
						C3315.17,443.48,3369.32,497.57,3369.32,564.32z"/><path fill="#e7f0fe" d="M3202.51,512.26H702.77c-54.14,0-98.03,43.89-98.03,98.03v1543.96c0,54.14,43.89,98.03,98.03,98.03
						h2499.74c54.14,0,98.03-43.89,98.03-98.03V610.29C3300.54,556.15,3256.65,512.26,3202.51,512.26z"/><path fill="#e7f0fe" d="M3202.51,512.26H702.77c-54.14,0-98.03,43.89-98.03,98.03v1543.96c0,54.14,43.89,98.03,98.03,98.03
						h2499.74c54.14,0,98.03-43.89,98.03-98.03V610.29C3300.54,556.15,3256.65,512.26,3202.51,512.26z"/><path fill="#fff" d="M3202.51,571.12H2104.19v1622.29h1098.32c21.6,0,39.17-17.57,39.17-39.16V610.29
						C3241.68,588.69,3224.1,571.12,3202.51,571.12z"/><path fill="#a0c5ff" d="M586.22 2556.52h2732.86c7.47 0 13.53-6.06 13.53-13.53 0-7.47-6.06-13.53-13.53-13.53H586.22c-7.47 0-13.53 6.06-13.53 13.53C572.69 2550.47 578.74 2556.52 586.22 2556.52zM2347.5 862.04c-38.22 0-69.19 30.97-69.19 69.19 0 38.22 30.98 69.19 69.19 69.19 38.22 0 69.19-30.97 69.19-69.19C2416.69 893.02 2385.72 862.04 2347.5 862.04zM2347.5 989.05c-31.94 0-57.88-25.87-57.88-57.81s25.94-57.81 57.88-57.81c31.94 0 57.81 25.87 57.81 57.81S2379.44 989.05 2347.5 989.05zM2679.13 878.1h-182.06c-4.48 0-8.63 3.06-9.35 7.48-.92 5.63 3.41 10.5 8.87 10.5h182.54c4.97 0 8.99-4.03 8.99-8.99v0C2688.12 882.13 2684.09 878.1 2679.13 878.1zM3026.82 878.1h-317.49c-4.97 0-8.99 4.03-8.99 8.99v0c0 4.97 4.03 8.99 8.99 8.99h317.97c5.46 0 9.79-4.87 8.87-10.5C3035.45 881.16 3031.3 878.1 3026.82 878.1zM2757.61 922.24h-260.53c-4.48 0-8.63 3.06-9.35 7.48-.92 5.63 3.41 10.5 8.87 10.5h261.02c4.97 0 8.99-4.03 8.99-8.99l0 0C2766.6 926.27 2762.57 922.24 2757.61 922.24zM2757.61 966.39h-260.53c-4.48 0-8.63 3.06-9.35 7.48-.92 5.63 3.41 10.51 8.87 10.51h261.02c4.97 0 8.99-4.03 8.99-8.99l0 0C2766.6 970.41 2762.57 966.39 2757.61 966.39zM3026.82 922.24H2787.8c-4.96 0-8.99 4.03-8.99 8.99l0 0c0 4.97 4.03 8.99 8.99 8.99h239.49c5.46 0 9.79-4.87 8.87-10.5C3035.45 925.31 3031.3 922.24 3026.82 922.24z"/><path fill="#a0c5ff" d="M2346.5,965.76c-1.12,0-2.24-0.11-3.35-0.34c-4.36-0.9-8.17-3.51-10.58-7.25l-24.49-37.91
						c-4.97-7.69-2.76-17.96,4.94-22.93c7.7-4.99,17.96-2.76,22.94,4.93l15.33,23.75l79.19-53.01c7.61-5.12,17.91-3.07,23.01,4.56
						c5.1,7.6,3.06,17.9-4.56,23l-93.2,62.39C2352.98,964.8,2349.76,965.76,2346.5,965.76z"/><g><path fill="#a0c5ff" d="M2897.91 1165.42c0 38.22 30.97 69.19 69.19 69.19 38.22 0 69.19-30.97 69.19-69.19 0-38.22-30.97-69.19-69.19-69.19C2928.88 1096.23 2897.91 1127.2 2897.91 1165.42zM2909.29 1165.42c0-31.94 25.87-57.81 57.81-57.81 31.94 0 57.88 25.87 57.88 57.81s-25.94 57.81-57.88 57.81C2935.16 1223.23 2909.29 1197.36 2909.29 1165.42zM2635.47 1112.29h182.06c4.48 0 8.63 3.06 9.35 7.48.92 5.63-3.41 10.5-8.87 10.5h-182.54c-4.97 0-8.99-4.03-8.99-8.99v0C2626.48 1116.31 2630.51 1112.29 2635.47 1112.29zM2287.78 1112.29h317.49c4.97 0 8.99 4.03 8.99 8.99v0c0 4.97-4.03 8.99-8.99 8.99H2287.3c-5.46 0-9.79-4.87-8.87-10.5C2279.15 1115.35 2283.3 1112.29 2287.78 1112.29zM2556.99 1156.43h260.53c4.48 0 8.63 3.06 9.35 7.48.92 5.63-3.41 10.5-8.87 10.5h-261.02c-4.97 0-8.99-4.03-8.99-8.99l0 0C2548 1160.46 2552.03 1156.43 2556.99 1156.43zM2556.99 1200.57h260.53c4.48 0 8.63 3.06 9.35 7.48.92 5.63-3.41 10.51-8.87 10.51h-261.02c-4.97 0-8.99-4.03-8.99-8.99l0 0C2548 1204.6 2552.03 1200.57 2556.99 1200.57zM2287.79 1156.43h239.01c4.96 0 8.99 4.03 8.99 8.99l0 0c0 4.97-4.03 8.99-8.99 8.99H2287.3c-5.46 0-9.79-4.87-8.87-10.5C2279.15 1159.49 2283.31 1156.43 2287.79 1156.43z"/><path fill="#a0c5ff" d="M2974.81,1191.8c-1.12,0-2.24-0.11-3.35-0.34c-4.36-0.9-8.17-3.51-10.58-7.25l-24.49-37.91
						c-4.97-7.69-2.76-17.96,4.94-22.93c7.7-4.99,17.96-2.76,22.94,4.93l15.33,23.75l79.19-53.01c7.61-5.12,17.91-3.07,23.01,4.56
						c5.1,7.6,3.06,17.9-4.56,23l-93.2,62.39C2981.29,1190.84,2978.07,1191.8,2974.81,1191.8z"/></g><g><path fill="#fececc" d="M2838.51,2017.71c0,0-42.08,109.78-77.47,173.11c61.81,0,108.7,0,108.7,0v-140.11L2838.51,2017.71z"/><path fill="#a0c5ff" d="M2970.16,1857.86c0,0-99.22,69.11-142.37,158.89c0,0,59.29,115.12,94.68,96.59
								C2974.15,2086.27,2970.16,1857.86,2970.16,1857.86z"/><path fill="#5d74e4" d="M3163.52,2190.82c-1.7-145.46-45.21-335.6-161.77-338.26c-93.19-2.12-152.32,186.39-163.25,338.26
							H3163.52z"/><path fill="#a0c5ff" d="M2925.88 1945.45c-.44 0-.87-.22-1.12-.63-.38-.62-.18-1.42.44-1.8 6.2-3.77 4.63-9.96 4.56-10.22-.19-.7.23-1.42.92-1.61.69-.19 1.41.22 1.61.91.79 2.86.61 9.3-5.72 13.15C2926.35 1945.39 2926.11 1945.45 2925.88 1945.45zM2957.49 2006.06c-.44 0-.87-.22-1.12-.63-.38-.62-.18-1.43.44-1.8 6.2-3.77 4.63-9.96 4.56-10.22-.19-.7.23-1.42.92-1.61.69-.19 1.41.22 1.61.91.79 2.86.61 9.29-5.72 13.15C2957.96 2006 2957.73 2006.06 2957.49 2006.06zM3022.82 1954.79c-.44 0-.87-.22-1.12-.63-.38-.62-.18-1.43.44-1.8 6.2-3.77 4.63-9.96 4.56-10.22-.19-.7.23-1.42.92-1.61.69-.19 1.41.22 1.61.91.79 2.86.61 9.29-5.72 13.15C3023.29 1954.73 3023.05 1954.79 3022.82 1954.79zM2931.72 2040.97c0 .44-.22.87-.63 1.12-.62.38-1.43.18-1.8-.44-3.77-6.2-9.96-4.63-10.22-4.56-.7.19-1.42-.23-1.61-.92-.2-.69.22-1.41.91-1.61 2.86-.79 9.29-.61 13.15 5.72C2931.66 2040.5 2931.72 2040.74 2931.72 2040.97zM2871.05 2096.94c-.44 0-.87-.22-1.12-.63-.38-.62-.18-1.43.44-1.8 6.2-3.77 4.63-9.96 4.56-10.22-.19-.7.23-1.42.92-1.61.69-.19 1.41.22 1.61.91.79 2.86.61 9.29-5.72 13.15C2871.52 2096.88 2871.28 2096.94 2871.05 2096.94zM2918.02 1972.61c-.04-.44.14-.89.52-1.18.58-.43 1.4-.32 1.83.26 4.34 5.81 10.35 3.66 10.6 3.57.68-.25 1.43.09 1.69.77.26.67-.08 1.43-.76 1.69-2.78 1.06-9.19 1.49-13.64-4.45C2918.13 1973.07 2918.05 1972.84 2918.02 1972.61zM2992.75 1926.35c-.04-.44.14-.89.52-1.18.58-.43 1.4-.31 1.84.27 4.34 5.81 10.35 3.66 10.6 3.57.68-.25 1.43.09 1.69.77.26.67-.08 1.43-.76 1.69-2.77 1.06-9.19 1.49-13.64-4.45C2992.86 1926.81 2992.78 1926.58 2992.75 1926.35zM2946.7 2092.56c-.04-.44.14-.89.52-1.18.58-.43 1.4-.31 1.83.27 4.34 5.81 10.35 3.66 10.6 3.57.68-.25 1.43.09 1.69.77.26.67-.08 1.43-.76 1.69-2.78 1.06-9.2 1.49-13.64-4.45C2946.81 2093.02 2946.72 2092.79 2946.7 2092.56zM3010.8 1996.75c-.04-.44.14-.89.52-1.18.58-.43 1.4-.31 1.84.26 4.34 5.81 10.35 3.66 10.6 3.57.68-.25 1.43.09 1.69.77.26.67-.08 1.43-.76 1.69-2.78 1.06-9.19 1.49-13.64-4.45C3010.9 1997.21 3010.82 1996.98 3010.8 1996.75zM2865.75 2046.64c-.04-.44.14-.89.52-1.18.58-.43 1.4-.31 1.83.27 4.34 5.81 10.35 3.66 10.6 3.57.68-.25 1.43.09 1.69.77.26.67-.08 1.43-.76 1.69-2.78 1.06-9.19 1.49-13.64-4.45C2865.86 2047.1 2865.77 2046.87 2865.75 2046.64zM2979.42 1961.41c-2.4 0-4.04-1.42-6.14-3.25-.96-.83-2.04-1.77-3.4-2.77-3.08-2.25-3.51-1.86-5.59.01-1.14 1.03-2.71 2.43-5.14 3.68-2.25 1.15-4.36 1.34-6.29.57-3.43-1.38-4.84-5.34-4.89-5.51-.24-.68.13-1.43.81-1.67.68-.24 1.43.12 1.67.8l0 0c.01.03 1.09 3.02 3.41 3.95 1.21.48 2.55.33 4.11-.47 2.13-1.09 3.49-2.31 4.58-3.29 2.54-2.28 4.33-3.51 8.89-.18 1.45 1.06 2.58 2.04 3.57 2.9 3.11 2.7 4.05 3.52 8.03 1.46.64-.33 1.43-.08 1.77.56.33.64.08 1.43-.56 1.77C2982.27 1960.99 2980.73 1961.41 2979.42 1961.41zM3003.16 2087.73c-2.4 0-4.04-1.42-6.14-3.25-.96-.83-2.04-1.77-3.4-2.77-3.08-2.25-3.51-1.86-5.59.01-1.14 1.03-2.71 2.43-5.14 3.68-2.25 1.15-4.36 1.34-6.29.56-3.43-1.38-4.84-5.34-4.89-5.51-.24-.68.12-1.43.81-1.67.68-.24 1.43.12 1.67.8l0 0c.01.03 1.09 3.02 3.41 3.95 1.21.48 2.55.33 4.11-.47 2.13-1.09 3.49-2.31 4.58-3.29 2.54-2.28 4.33-3.51 8.89-.18 1.45 1.06 2.58 2.04 3.57 2.9 3.11 2.7 4.05 3.52 8.03 1.46.64-.33 1.43-.08 1.77.56.33.64.08 1.43-.56 1.77C3006.01 2087.3 3004.47 2087.73 3003.16 2087.73zM2886.65 2017.71c-.11 0-.22-.01-.33-.04-3.48-.9-5-3.06-5.66-4.71-1.24-3.1-.4-6.72.98-8.94 2.44-3.92 3.32-7.16-.3-10.22-1.84-1.56-2.11-3.17-2.01-4.25.31-3.36 4.44-5.8 4.91-6.07.63-.36 1.43-.14 1.79.49.36.63.14 1.43-.49 1.79-.88.51-3.44 2.33-3.6 4.03-.02.25-.09 1.01 1.09 2 6.1 5.16 2.28 11.3.84 13.61-1 1.6-1.67 4.35-.77 6.58.63 1.58 1.94 2.64 3.88 3.14.7.18 1.12.9.94 1.6C2887.77 2017.32 2887.23 2017.71 2886.65 2017.71zM2913.48 2176.61c-.11 0-.22-.01-.33-.04-3.48-.9-5-3.06-5.66-4.71-1.24-3.1-.4-6.72.98-8.94 2.44-3.92 3.32-7.16-.3-10.22-1.84-1.56-2.11-3.17-2.01-4.25.31-3.36 4.44-5.8 4.91-6.07.63-.36 1.43-.14 1.79.49.36.63.14 1.43-.49 1.79-.88.51-3.44 2.33-3.59 4.03-.02.25-.09 1.01 1.09 2 6.1 5.16 2.28 11.3.84 13.61-1 1.6-1.67 4.35-.77 6.58.63 1.58 1.94 2.64 3.88 3.14.7.18 1.12.9.94 1.6C2914.59 2176.22 2914.06 2176.61 2913.48 2176.61zM2900.75 2137.54c-.11 0-.22-.01-.33-.04-3.48-.9-5-3.06-5.66-4.71-1.24-3.1-.4-6.72.98-8.94 2.44-3.92 3.32-7.16-.3-10.22-1.84-1.56-2.11-3.17-2.01-4.25.31-3.36 4.44-5.8 4.91-6.07.63-.36 1.43-.14 1.79.49.36.63.14 1.43-.49 1.79-.88.51-3.44 2.33-3.59 4.03-.02.25-.09 1.01 1.09 2 6.1 5.16 2.28 11.3.84 13.61-1 1.6-1.67 4.35-.77 6.58.63 1.58 1.94 2.64 3.88 3.14.7.18 1.12.9.94 1.6C2901.86 2137.14 2901.33 2137.54 2900.75 2137.54zM2993.71 2030.24c.06.09.11.19.15.3 1.21 3.39.28 5.86-.71 7.33-1.86 2.76-5.34 4.11-7.95 4.21-4.61.18-7.79 1.27-8.28 6-.25 2.4-1.44 3.53-2.39 4.05-2.96 1.63-7.29-.41-7.78-.65-.65-.32-.92-1.1-.6-1.75.32-.65 1.1-.92 1.75-.6.91.45 3.86 1.53 5.36.71.22-.12.88-.49 1.05-2.03.84-7.95 8.07-8.24 10.79-8.34 1.89-.08 4.53-1.06 5.88-3.06.95-1.41 1.09-3.09.42-4.98-.24-.68.11-1.43.79-1.68C2992.76 2029.54 2993.38 2029.76 2993.71 2030.24zM2971.27 2150.12c0 .11-.01.22-.04.33-.9 3.48-3.06 5-4.71 5.66-3.1 1.24-6.72.4-8.94-.98-3.92-2.44-7.16-3.32-10.22.3-1.56 1.84-3.17 2.11-4.25 2.01-3.36-.31-5.8-4.44-6.07-4.91-.36-.63-.14-1.43.49-1.79.63-.36 1.43-.14 1.79.49.51.88 2.33 3.44 4.03 3.6.25.02 1.01.09 2-1.09 5.16-6.1 11.3-2.28 13.61-.84 1.6 1 4.35 1.67 6.58.77 1.58-.63 2.64-1.94 3.14-3.88.18-.7.9-1.12 1.6-.94C2970.87 2149.01 2971.27 2149.54 2971.27 2150.12zM2913.7 2096.57c-3.74 0-6.78-3.04-6.78-6.78 0-3.73 3.04-6.77 6.78-6.77 3.74 0 6.78 3.04 6.78 6.77C2920.47 2093.53 2917.43 2096.57 2913.7 2096.57zM2913.7 2085.64c-2.29 0-4.15 1.86-4.15 4.15 0 2.29 1.86 4.15 4.15 4.15 2.29 0 4.15-1.86 4.15-4.15C2917.85 2087.5 2915.99 2085.64 2913.7 2085.64zM3015.46 1984.73c-3.74 0-6.78-3.04-6.78-6.78 0-3.74 3.04-6.78 6.78-6.78 3.74 0 6.78 3.04 6.78 6.78C3022.23 1981.69 3019.19 1984.73 3015.46 1984.73zM3015.46 1973.8c-2.29 0-4.15 1.86-4.15 4.15 0 2.29 1.86 4.15 4.15 4.15s4.15-1.86 4.15-4.15C3019.61 1975.66 3017.75 1973.8 3015.46 1973.8zM2910.45 1998.53c-3.74 0-6.78-3.04-6.78-6.78 0-3.74 3.04-6.77 6.78-6.77s6.78 3.04 6.78 6.77C2917.22 1995.49 2914.19 1998.53 2910.45 1998.53zM2910.45 1987.6c-2.29 0-4.15 1.86-4.15 4.15 0 2.29 1.86 4.15 4.15 4.15s4.15-1.86 4.15-4.15C2914.6 1989.46 2912.74 1987.6 2910.45 1987.6zM2862.01 2176.62c-3.74 0-6.78-3.04-6.78-6.78 0-3.73 3.04-6.77 6.78-6.77 3.74 0 6.78 3.04 6.78 6.77C2868.79 2173.58 2865.75 2176.62 2862.01 2176.62zM2862.01 2165.7c-2.29 0-4.15 1.86-4.15 4.15 0 2.29 1.86 4.15 4.15 4.15 2.29 0 4.15-1.86 4.15-4.15C2866.17 2167.56 2864.3 2165.7 2862.01 2165.7zM2967.68 1928.51c-3.74 0-6.78-3.04-6.78-6.78 0-3.73 3.04-6.77 6.78-6.77 3.74 0 6.78 3.04 6.78 6.77C2974.45 1925.47 2971.41 1928.51 2967.68 1928.51zM2967.68 1917.58c-2.29 0-4.15 1.86-4.15 4.15 0 2.29 1.86 4.15 4.15 4.15 2.29 0 4.15-1.86 4.15-4.15C2971.83 1919.44 2969.97 1917.58 2967.68 1917.58zM3019.61 2153.14c-3.74 0-6.78-3.04-6.78-6.78 0-3.74 3.04-6.78 6.78-6.78s6.78 3.04 6.78 6.78C3026.39 2150.1 3023.35 2153.14 3019.61 2153.14zM3019.61 2142.21c-2.29 0-4.15 1.86-4.15 4.15 0 2.29 1.86 4.15 4.15 4.15s4.15-1.86 4.15-4.15C3023.76 2144.07 3021.9 2142.21 3019.61 2142.21z"/><g><path fill="#fececc" d="M2977.69,1814.7l-7.46,44.07c0,0,8.18,41.44,64.56,9.92l-13.77-62.99L2977.69,1814.7z"/><path fill="#201135" d="M3021.01,1805.71l-43.32,8.99l-3.24,19.12c1.03,0.3,2.07,0.59,3.11,0.86
										c4.97,1.31,10.04,2.41,14.89,3.94c3.8,1.2,7.59,2.74,10.4,5.01c2.95,2.39,4.41,5.37,4.61,8.57
										c0.34,5.24-3.38,9.82-6.01,14.51c-1.69,3.01-2.6,7.06-6.32,9.15c-2.7,1.52-6.24,2.07-9.73,2.02
										c9.58,4.44,24.95,4.49,49.39-9.17L3021.01,1805.71z" opacity=".1"/><path fill="#fececc" d="M2938.73,1693.18c0,0-25.98,141.57,26.98,144.9c52.97,3.33,89.28-52.97,89.28-52.97
									s21.99-3.5,23.49-29.98c1.21-21.35-11.99-17.49-11.99-17.49s10.16-54.47-27.81-65.13
									C3000.69,1661.87,2938.73,1693.18,2938.73,1693.18z"/><path fill="#201135" d="M3016.62 1766.37c.58 3.44-3.17 6.95-8.38 7.83-5.21.88-9.9-1.2-10.48-4.65-.58-3.44 3.17-6.95 8.38-7.83C3011.35 1760.85 3016.04 1762.93 3016.62 1766.37zM2957.61 1766.7c.58 3.44-3.17 6.95-8.38 7.82-5.21.88-9.9-1.2-10.48-4.65-.58-3.44 3.17-6.95 8.38-7.82C2952.33 1761.17 2957.02 1763.25 2957.61 1766.7z" opacity=".1"/><path fill="#000141" d="M2960.11 1734.32c-.5 0-.99-.26-1.26-.73-.24-.41-5.87-9.71-19.69-3.59-.74.33-1.6-.01-1.92-.74-.33-.73 0-1.6.74-1.92 16.29-7.22 23.32 4.69 23.39 4.8.4.7.16 1.59-.54 1.99C2960.6 1734.26 2960.35 1734.32 2960.11 1734.32zM2988.36 1734.58c-.18 0-.36-.03-.54-.1-.75-.3-1.12-1.14-.82-1.89.05-.13 5.35-12.84 24.5-8.74.79.17 1.29.94 1.12 1.73-.17.78-.93 1.29-1.73 1.12-16.78-3.6-21.14 6.86-21.18 6.97C2989.48 1734.23 2988.94 1734.58 2988.36 1734.58zM2971.77 1771.03c-.5 0-1-.07-1.49-.21-3.09-.9-4.39-4.38-4.45-4.52-.16-.43-.1-.91.15-1.3 5.23-8.02 3.84-18.85 3.82-18.96-.11-.8.45-1.53 1.25-1.64.82-.12 1.53.45 1.64 1.25.07.47 1.47 11.44-3.84 20.25.42.76 1.2 1.82 2.25 2.13.98.28 2.18-.11 3.56-1.16.64-.49 1.55-.37 2.04.27.49.64.37 1.55-.27 2.04C2974.83 1770.41 2973.26 1771.03 2971.77 1771.03z"/><path fill="#fcfaf7" d="M2953.08,1790c0,0,16.61,7.53,35.22-1.13C2992.52,1796.61,2970.47,1816.74,2953.08,1790z"/><path fill="#000141" d="M2955.69 1746.06c0 4.54-2.52 8.22-5.62 8.22-3.1 0-5.62-3.68-5.62-8.22 0-4.54 2.52-8.21 5.62-8.21C2953.17 1737.85 2955.69 1741.53 2955.69 1746.06zM3006.27 1746.06c0 4.54-2.51 8.22-5.62 8.22-3.1 0-5.62-3.68-5.62-8.22 0-4.54 2.52-8.21 5.62-8.21C3003.76 1737.85 3006.27 1741.53 3006.27 1746.06z"/><path fill="#201135" d="M2974.62 1810.63c-1.54 0-2.54-.23-2.64-.25-.39-.09-.63-.48-.54-.87.09-.39.49-.63.88-.54.06.02 6.45 1.44 12.25-3.59.31-.25.77-.22 1.03.08.26.3.23.76-.07 1.03C2981.49 1809.97 2977.26 1810.63 2974.62 1810.63zM3063.98 1746.31c0 0 8.49-4 10.16 2 1.67 6-3.66 21.15-11.82 24.65 0 0 14.82-14.32 9.99-22.99C3067.48 1741.31 3064.48 1750.47 3063.98 1746.31z" opacity=".1"/></g><path fill="#a0c5ff" d="M3032.45,1856.21c0,0,12.7,11.7,5.83,29.67c-5.83,15.25-13.38,28.66-34.72,24.96
							c-21.34-3.7-22.1-24.96-22.1-24.96s-18.44,24.46-33.83,11.61c-26.14-21.84,23.33-42.97,23.33-42.97s-0.72,12.42,18,17.98
							C3007.68,1878.07,3032.45,1856.21,3032.45,1856.21z"/><path fill="#000141" d="M3018.3,1681.37c0,0-15.3,27.85-31.72,26.66c-16.42-1.19-17.96-4.24-17.96-4.24s-9.52,14.58-33.83,13.39
							c-24.31-1.19-26.3-17.87-26.3-17.87s-18.03-5.66-12.73-25.9c5.3-20.24,22.36-13.93,22.36-13.93s-9.09-12.34,8.34-25.86
							c17.44-13.53,34.33,10.74,34.33,10.74s4.67-7.01,28.71-14.84c24.04-7.84,40.52,18.03,40.52,18.03s33.25-10.74,40.02,21.09
							c0,0,22.28,13.13,12.34,32.63c0,0,16.82,38.99-17.73,39.19c0,0-5.75,19.64-19.68,18.48c-13.93-1.16-5.89-20.5-8.91-28.14
							C3033.02,1723.15,3010.74,1716.39,3018.3,1681.37z"/><path fill="#fececc" d="M3152.59,2052.75c0,0,42.12,117.16,21.97,138.08h-165.88c0,0,68.17-22.93,69.87-48.62
							c1.7-25.69-23.02-64.66-23.02-64.66L3152.59,2052.75z"/><g><path fill="#a0c5ff" d="M3044.93,2097.66c0,0,77.66,23.17,119.82-30.87c0,0-19.31-133.8-98.69-191.66
									C3018.68,1886.23,3044.93,2097.66,3044.93,2097.66z"/></g></g><g><path fill="#000141" d="M2774.82,1342.92h-737.5c-19.85,0-35.94,16.11-35.91,35.96l0.46,368.05
							c0.02,19.82,16.1,35.87,35.91,35.87h623.81l74.58,25.51l15.61-25.51h23.05c48.73,0,88.23-39.5,88.23-88.23v-263.41
							C2863.05,1382.43,2823.55,1342.92,2774.82,1342.92z" opacity=".1"/><polygon fill="#fff" points="2736.17 1747.55 2736.17 1808.31 2611.41 1754.87"/><path fill="#fff" d="M2052.37,1329.85h706.82c48.73,0,88.23,39.5,88.23,88.23v263.39c0,48.73-39.5,88.23-88.23,88.23h-706.82
							c-48.73,0-88.23-39.5-88.23-88.23v-263.39C1964.14,1369.35,2003.64,1329.85,2052.37,1329.85z"/><path fill="#a0c5ff" d="M2091.92,1537.42c-26.22,0-47.47,21.25-47.47,47.47s21.25,47.47,47.47,47.47
										c26.22,0,47.47-21.25,47.47-47.47S2118.14,1537.42,2091.92,1537.42z M2091.92,1624.54c-21.91,0-39.71-17.75-39.71-39.66
										s17.79-39.66,39.71-39.66c21.91,0,39.66,17.75,39.66,39.66S2113.83,1624.54,2091.92,1624.54z"/><path fill="#a0c5ff" d="M2098.15,1584.88c0,3.45-2.79,6.24-6.24,6.24s-6.25-2.79-6.25-6.24s2.8-6.24,6.25-6.24
										S2098.15,1581.43,2098.15,1584.88z"/><path fill="#a0c5ff" d="M2091.9,1551.26c-2.21,0-4.01,1.79-4.01,4.01v27.83c0,2.21,1.79,4.01,4.01,4.01
										c2.21,0,4.01-1.79,4.01-4.01v-27.83C2095.91,1553.05,2094.11,1551.26,2091.9,1551.26z"/><path fill="#a0c5ff" d="M2115.33,1562.73c-1.56-1.56-4.1-1.56-5.67,0l-19.68,19.68c-1.56,1.56-1.56,4.1,0,5.67
										c1.56,1.56,4.1,1.56,5.67,0l19.68-19.68C2116.89,1566.83,2116.89,1564.29,2115.33,1562.73z"/><g><path fill="#a0c5ff" d="M2319.43 1548.43h-124.89c-3.07 0-5.92 2.1-6.41 5.13-.63 3.87 2.34 7.2 6.08 7.2h125.23c3.41 0 6.17-2.76 6.17-6.17v0C2325.59 1551.19 2322.83 1548.43 2319.43 1548.43zM2557.95 1548.43h-217.81c-3.41 0-6.17 2.76-6.17 6.17v0c0 3.41 2.76 6.17 6.17 6.17h218.14c3.75 0 6.71-3.34 6.08-7.2C2563.87 1550.53 2561.02 1548.43 2557.95 1548.43zM2373.26 1578.71h-178.73c-3.07 0-5.92 2.1-6.42 5.13-.63 3.86 2.34 7.21 6.08 7.21h179.06c3.41 0 6.17-2.76 6.17-6.17l0 0C2379.43 1581.48 2376.67 1578.71 2373.26 1578.71zM2373.26 1609h-178.73c-3.07 0-5.92 2.1-6.42 5.13-.63 3.87 2.34 7.21 6.08 7.21h179.06c3.41 0 6.17-2.76 6.17-6.17l0 0C2379.43 1611.76 2376.67 1609 2373.26 1609zM2557.95 1578.71h-163.97c-3.41 0-6.17 2.76-6.17 6.17l0 0c0 3.41 2.76 6.17 6.17 6.17h164.3c3.75 0 6.71-3.34 6.08-7.21C2563.87 1580.81 2561.02 1578.71 2557.95 1578.71z"/></g><path fill="#5d74e4" d="M1979.76,1464.27v-46.19c0-40.04,32.57-72.61,72.6-72.61h706.82c40.03,0,72.6,32.57,72.6,72.61v46.19
							H1979.76z"/><g><path fill="#fff" d="M2138.9 1417.04l-4.35 13.43h-14.32l18.68-51.76h16.5l18.68 51.76h-14.7l-4.35-13.43H2138.9zM2142.2 1406.54h9.6l-4.8-15.9L2142.2 1406.54zM2225 1395.51c0 10.2-6.83 15.53-14.33 16.43-2.77.3-4.87.37-8.1.37h-6v18.15h-13.5v-51.76h19.51c3.23 0 5.33.08 8.1.38C2218.18 1379.98 2225 1385.31 2225 1395.51zM2210.9 1395.51c0-3.9-2.02-5.93-5.48-6.22-.97-.08-2.17-.08-3.6-.08h-5.25v12.6h5.25c1.43 0 2.63 0 3.6-.08C2208.88 1401.44 2210.9 1399.41 2210.9 1395.51zM2277.42 1395.51c0 10.2-6.83 15.53-14.33 16.43-2.77.3-4.87.37-8.1.37h-6v18.15h-13.5v-51.76h19.51c3.23 0 5.33.08 8.1.38C2270.59 1379.98 2277.42 1385.31 2277.42 1395.51zM2263.31 1395.51c0-3.9-2.03-5.93-5.48-6.22-.97-.08-2.17-.08-3.6-.08h-5.25v12.6h5.25c1.43 0 2.63 0 3.6-.08C2261.29 1401.44 2263.31 1399.41 2263.31 1395.51zM2338.92 1404.59c0 16.58-10.36 26.93-26.48 26.93-16.13 0-26.48-10.35-26.48-26.93 0-16.65 10.35-26.93 26.48-26.93C2328.56 1377.66 2338.92 1387.94 2338.92 1404.59zM2325.11 1404.59c0-11.03-4.87-17.03-12.68-17.03-7.8 0-12.68 6-12.68 17.03 0 10.95 4.88 17.03 12.68 17.03C2320.24 1421.62 2325.11 1415.54 2325.11 1404.59zM2351.12 1430.47v-51.76h13.5v51.76H2351.12zM2410.67 1430.47l-18.83-34.21c.45 5.25.45 9.83.45 12.83v21.38h-13.5v-51.76h16.8l19.66 35.71c-.38-5.25-.45-10.58-.45-13.58v-22.13h13.5v51.76H2410.67zM2467.81 1389.21v41.26h-13.5v-41.26h-16.8v-10.5h47.11v10.5H2467.81zM2553.16 1430.47h-13.5v-21.76c0-4.5 0-11.18.15-16.43-.9 5.25-2.4 11.85-3.6 16.43l-5.7 21.76h-13.88l-5.78-21.76c-1.2-4.5-2.7-11.18-3.52-16.43.15 5.25.15 11.93.15 16.43v21.76h-13.5v-51.76h21.08l8.78 38.63 8.78-38.63h20.56V1430.47zM2606.99 1430.47h-39.68v-51.76h38.93v10.5h-25.43v10.05h23.93v10.5h-23.93v10.21h26.18V1430.47zM2651.24 1430.47l-18.83-34.21c.45 5.25.45 9.83.45 12.83v21.38h-13.5v-51.76h16.8l19.66 35.71c-.38-5.25-.45-10.58-.45-13.58v-22.13h13.5v51.76H2651.24zM2708.38 1389.21v41.26h-13.5v-41.26h-16.8v-10.5h47.11v10.5H2708.38z"/></g><g><path fill="#e7f0fe" d="M2763.51,1511.68h-114.13c-20.97,0-37.97,17-37.97,37.97v113.36c0,20.97,17,37.97,37.97,37.97h114.13
							c20.97,0,37.97-17,37.97-37.97v-113.36C2801.48,1528.68,2784.48,1511.68,2763.51,1511.68z"/><path fill="#a0c5ff" d="M2794.76,1569.53v-19.88c0-17.23-14.02-31.25-31.25-31.25h-114.13c-17.23,0-31.25,14.02-31.25,31.25
							v19.88H2794.76z"/><path fill="#fff" d="M2673.79 1550.41l-1.42 4.37h-4.67l6.08-16.86h5.38l6.08 16.86h-4.79l-1.42-4.37H2673.79zM2674.87 1546.99h3.13l-1.56-5.18L2674.87 1546.99zM2701.83 1543.4c0 3.32-2.22 5.06-4.67 5.35-.9.1-1.59.12-2.64.12h-1.96v5.91h-4.4v-16.86h6.35c1.05 0 1.73.02 2.64.12C2699.61 1538.34 2701.83 1540.07 2701.83 1543.4zM2697.24 1543.4c0-1.27-.66-1.93-1.78-2.03-.32-.02-.71-.02-1.17-.02h-1.71v4.11h1.71c.46 0 .86 0 1.17-.02C2696.58 1545.33 2697.24 1544.67 2697.24 1543.4zM2719.66 1554.78h-4.79c-.39-1.2-.64-2.17-.78-3.37-.22-1.86-.95-2.93-2.08-3.01-.49-.03-.9-.03-1.39-.03h-.98v6.4h-4.4v-16.86h6.69c1.05 0 1.74.02 2.64.12 2.44.29 4.57 1.49 4.57 4.47 0 2.13-1.15 3.54-3.4 4.2 1.76.64 2.4 1.93 2.64 3.96C2718.61 1552.59 2719 1553.78 2719.66 1554.78zM2711.23 1545.21c.46 0 .86 0 1.17-.02 1.12-.1 2.15-.49 2.15-1.9s-.9-1.81-2.03-1.91c-.32-.02-.71-.02-1.17-.02h-1.71v3.86H2711.23zM2723.25 1554.78v-16.86h4.4v16.86H2723.25zM2745.19 1554.78h-12.92v-16.86h4.4v13.15h8.53V1554.78z"/><g><path fill="#a0c5ff" d="M2697.31 1645.04v13.06h-49.89v-7.27l20.24-19.02c9.6-9.05 12.87-13.52 12.87-19.67 0-4.85-2.7-7.55-7.27-7.55-4.85 0-7.27 3.08-7.93 9.79l-.09.93h-16.78l.09-.93c1.4-14.17 10.35-22.1 26.11-22.1 15.01 0 23.41 7.18 23.41 19.21 0 7.55-3.45 13.34-15.85 25.27l-8.58 8.3H2697.31zM2765.47 1638.98c0 12.31-10.07 20.42-26.3 20.42-16.32 0-25.83-7.93-27.14-20.79l-.09-.93h16.78l.19.93c.93 4.48 4.1 8.49 9.61 8.49 5.78 0 9.42-3.26 9.42-7.65 0-5.5-4.01-8.3-10.72-8.58l-2.52-.09v-10.82l2.52-.19c6.15-.47 9.23-3.82 9.23-8.21 0-4.2-2.52-6.81-7.18-6.81-4.94 0-6.99 4.01-7.37 8.21l-.09.93h-16.79l.09-.93c1.12-10.82 9.14-20.52 25.83-20.52 15.76 0 23.03 8.02 23.03 17.16 0 7.55-3.82 12.59-12.22 14.64C2760.9 1626.01 2765.47 1630.68 2765.47 1638.98z"/></g></g></g><g><path fill="#000141" d="M1539.6,963.65c-10.32,67.26-6.94,108.25-1.21,140.89c9.99,57.53,27.24,89.74-10.02,195.11
								c-58.46,165.19-226.26,43.74-374.18,186.16c-162.72,156.86-316.95,220.9-445.99,221.85
								c-151.67,1.15-268.73-85.12-324.53-210.8c-103.23-232.89-8.9-303.77,197.16-371.03c205.94-67.25,113.03-259.01,222.56-328.14
								c109.55-69,242.63-49.69,294.77-93.74c52.12-44.05,210.97-104.38,354.5-46.99C1572.58,704.73,1567.95,778.19,1539.6,963.65z"/><path d="M1528.37,1299.65c-58.46,165.19-226.26,43.74-374.18,186.16c-162.72,156.86-316.95,220.9-445.99,221.85
								c0.46-3.33,0.8-6.65,1.28-9.85c14.43-104.78,45.15-214.12,93.24-308.4c46.87-91.98,116.82-165.58,198.85-227.11
								c41.29-31.11,84.72-59.22,127.69-87.9c22.65-15.18,45.74-29.78,70.44-41.57c23.53-11.13,50-18.86,70.58-35.42
								c33.16-26.69,43.65-67.53,47.89-107.97c3.7-35.71,4.42-73.19,29.17-99.58c61.01-9.41,61.71,82.52,65.39,123.85
								c2.96,33.62,8.44,67.3,18.54,99.64c12.81,40.94,38.6,70.94,79.83,84.52c8.93,2.91,18.02,5.16,27.27,6.65
								C1548.38,1162.07,1565.64,1194.27,1528.37,1299.65z" opacity=".5"/><path fill="#5d74e4" d="M1485.12,1224.81l-8.21-123.08c0,0,224.1,53.05,298.61,534.84c27.5,177.88-27.68,249.33-114.24,263.25
								C1574.71,1913.75,1356.73,1606.25,1485.12,1224.81z"/><path fill="#fececc" d="M1881.18,996.06c-0.27,1.93-0.69,3.64-1.14,4.95c-0.1,0.27-0.18,0.51-0.27,0.72
												c-2.25,5.54-4.77,10.94-7.27,15.86c-6.69,13.25-13.17,23.15-13.17,23.15s-1.76,86.39-6.13,96.79
												c-8.39,8.8-54.97-2.74-54.97-2.74c-6.31-8.52,6.14-94.55,5.09-111.58c-1.03-17.05,4.98-36.37,4.98-36.37
												s1.18-88.05,21.08-87.74c8.85,0.13,5.06,44.58,5.54,61.65c0.01,0.14,0,0.28,0.01,0.42c0.02-0.04,6.1-4.93,12.24-1.32
												c3.01,1.75,3.88,3.96,3.88,3.96s4.36-1.6,7.54-0.64c3.2,0.96,7.51,4.17,7.44,5.77c0.06,0,3.84-1.62,7.24,0.84
												c3.4,2.44,4.43,8.65,4.43,8.65l-0.04,0c0.44,0.63,0.85,1.26,1.21,1.91C1881.6,985.32,1881.83,991.37,1881.18,996.06z"/><path fill="#fff" d="M1881.18,996.06c-0.58-0.64-1.26-1.17-2.1-1.49c-3.73-1.42-6.14,1.8-7.49,4.55
												c-0.79,1.61-1.32,3.42-2.31,4.93c-0.83,1.33-2.31,2.41-3.67,3.21c-11.57,7.04-34.4,1.07-34.58-13.92
												c-0.08-6.14,0.4-12.52,1.2-18.56c0.67-5.05,1.03-8.85,2.7-13.61c0.02-0.04,6.1-4.93,12.24-1.32
												c3.01,1.75,3.88,3.96,3.88,3.96s4.36-1.6,7.54-0.64c3.2,0.96,7.51,4.17,7.44,5.77c0.06,0,3.84-1.62,7.24,0.84
												c3.4,2.44,4.43,8.65,4.43,8.65l-0.04,0c0.44,0.63,0.85,1.26,1.21,1.91C1881.6,985.32,1881.83,991.37,1881.18,996.06z" opacity=".2"/><path fill="#5d74e4" d="M1872.79,996.14c-3.4,15.14-11.66,18.46-15.32,19.18c-9.77-2.37-18.82-6.23-23.1-10.29
											c-2.99-2.83-3.96-9.31-3.83-16.65c-0.08,0.4-0.16,0.8-0.24,1.21c-1.2,6.74-2.21,14.52,0.84,20.93
											c3.01,6.33,9.7,9.2,16.4,9.46c5.38,0.21,10.77-0.93,15.92-2.66l0.01,0c0.01,0,0.02-0.01,0.03-0.02
											c0.48-0.16,0.96-0.32,1.44-0.49c-0.13-0.02-0.26-0.04-0.39-0.07C1872.55,1012.11,1872.79,996.14,1872.79,996.14z" opacity=".1"/><path fill="#eab2b2" d="M1857.25,1013.59c1.99-4.51,3.21-8.21,4.46-12.93c1.24-4.82,2.09-9.81,1.78-14.77
											c-0.04,4.97-1.22,9.81-2.77,14.48c-1.58,4.65-5.67,13.19-5.67,13.19c-1.68-0.03-7.23-2.07-9.58-3.08
											c-0.12-0.05-0.23-0.1-0.35-0.15c1.63-4.75,3.07-9.52,4.29-14.37c1.21-4.9,2.28-9.89,2.48-14.94
											c-0.54,5.02-1.94,9.88-3.47,14.66c-1.53,4.68-3.28,9.3-5.18,13.82c-1.58-0.72-3.14-1.46-4.58-2.38
											c-3.97-2.54-5.74-4.62-6.99-12.11c-0.42-2.51-0.5-5.09-0.55-7.67c-0.11-2.58-0.05-5.16,0.01-7.76
											c-0.97,5.11-1.38,10.33-1.03,15.59c0.19,2.63,0.59,5.29,1.72,7.85c0.33,0.62,0.59,1.28,1.07,1.84l0.67,0.86l0.76,0.72
											c0.5,0.5,1.03,0.92,1.59,1.31c0.54,0.42,1.1,0.8,1.68,1.13c4.61,2.74,9.59,4.46,14.63,5.8c5.04,1.33,9.95,1.06,14.47-5.11
											C1863.76,1013.06,1858.32,1013.9,1857.25,1013.59z"/><path fill="#5d74e4" d="M1858.85 1039.89c-6.43 5.08-19.68 4.35-31.7 2.45-9.14-1.44-16.48-6.88-21.69-12.27.65 1.56 1.35 3.12 2.18 4.63 2.16 3.94 10.64 21.53 22.64 22.33 18.76 1.25 24.79-14.6 28.47-16.39C1858.78 1040.39 1858.82 1040.14 1858.85 1039.89zM1828.91 983.46c0 0 1.9 5.25-2.74 6.84-4.64 1.58-11.81-4.87-13.67 8.23-1.86 13.09-7.9 28.16-9.31 17.46-1.4-10.7-3.18-29.76 4.16-32.58C1814.7 980.57 1828.91 983.46 1828.91 983.46z" opacity=".1"/><path fill="#eab2b2" d="M1803.32,1023.21c0,0-13.72-25.91-14.06-34.75c-0.34-8.84,10.41-19.69,17.02-20.5
										c6.11-0.74,19.4,7.06,21.98,11.05c2.58,3.99,4.81,9.62-7.51,8.77c-12.33-0.85-13.03,2.43-13.03,2.43L1803.32,1023.21z"/><path fill="#fff" d="M1820.36,979.66c0,0,6.69,4.93,8.21,4.38s-1.19-6.04-3.74-7.05
										C1822.28,975.98,1820.36,979.66,1820.36,979.66z" opacity=".2"/><g><path fill="#5d74e4" d="M1791.16,1084.56c-0.01,10.25-122.4,456.05-129.23,488.65c-62.72,299.32,118.05,307.52,118.05,307.52
										c2.66-0.89,5.3-1.82,7.71-3.03c194.57-97.14,79.17-796.64,79.17-796.64S1791.37,1073.97,1791.16,1084.56z"/></g><g opacity=".1"><path fill="#000141" d="M1821.23,1783.35c-16.68-3.18-30.97-12.44-37.23-28.7c-6.43-16.69-5.16-35.65-3.02-53.05
										c2.52-20.48,7.03-40.66,10.13-61.05c2.58-17.03,5.44-36.19-0.37-52.88c-9.7-27.86-27.91-51.72-43.95-76.12
										c-16.83-25.62-31.29-52.23-35.89-82.92c-1.54-10.28-2.25-20.62-2.57-30.98c-23.61,87.73-43.74,162.89-46.4,175.56
										c-62.72,299.32,118.05,307.52,118.05,307.52c2.66-0.89,5.3-1.82,7.71-3.03c33.08-16.52,57.19-50.48,74.44-95.42
										C1848.79,1785.52,1834.74,1785.93,1821.23,1783.35z"/></g><path fill="#c7dbff" d="M956.63,2197.65h721.4c-57.13-349.18,26-1067.37-288.81-1133.05
								c-166.71-34.78-475.54,193.83-403.47,498.34C1005.52,1775.14,1036.56,1984.65,956.63,2197.65z"/><path fill="#c7dbff" d="M1543.17,1655.44c0,8.36,0.42,17.14,0.84,25.49c-0.42,0.42,0,0.42,0,0.42
								c0.7,27.54,1.87,56.29,3.35,84.45c0.38,10.73,0.51,21.02,1.67,31.36c0.7,20.65,1.87,43.65,2.92,64.38
								c7.13,161.12,27.86,237.27,51.03,336.11h144.64c-44.82-1149.38-254.31-1080.94-277.85-1096.66
								c-4.1,114.32,66.85,391.97,73.4,553.62C1542.76,1655.02,1542.76,1655.02,1543.17,1655.44z"/><path fill="#5d74e4" d="M1256.3 2190.82c12.11-52.6 78.51-96.74 81.64-201.13.42-.42.42-.84 0-1.26.64-10.42.36-22.55.42-33.03 0-.41 0-.41-.42-.82-.97-183.26-26.29-369-58.53-548.49-.41-.42-.41-.42-.41-.42-17.34-72.38-29.6-315.59-14.7-327.85-30.59 25.15-87.35 112.74-112.71 140.73 13.65 31.96 57.17 93.64 71.39 126.91l-115.39 229.52C1271.41 1815.04 1256.3 2190.82 1256.3 2190.82zM1501.78 1356.07c13.69 149.07-72.44 537.88 16.26 832.28 0 0 15.3-373.31 79.07-606.35l-91.01-196.9c80.19-40.27 55.96-134.57 65.63-166.53-28.85-27.99-91.51-121.67-128.51-133.69C1476.61 1095.72 1486.08 1185.06 1501.78 1356.07z"/><g><path fill="#fececc" d="M1256.3,1095.04c-5.25,23.28,20.25,125.25,80.33,172.19c24.41,20.28,51.82,31.92,78.48,27.41
										c88.99-14.27,46.56-161.1,31.17-203.91c-0.38-1.5-1.13-3.01-1.5-4.13c-14.27-36.42-9.01-161.09-9.01-161.09l-91.25-19.15
										c0,0,5.63,21.78-17.65,84.49C1303.2,1053.56,1264.18,1062.38,1256.3,1095.04z"/><path fill="#eab2b2" d="M1336.63,1267.23c24.41,20.28,51.82,31.92,78.48,27.41c88.99-14.27,46.56-161.1,31.17-203.91
										c-0.38-1.5-1.13-3.01-1.5-4.13c-14.27-36.42-9.01-161.09-9.01-161.09l-85.62-17.65c3.01,2.25,4.88,6.01,5.26,10.89
										c1.88,49.94,45.06,84.86,63.08,129.17c13.89,34.18,22.9,81.11,1.88,114.53C1414.36,1172.22,1372.3,1225.55,1336.63,1267.23
										z" opacity=".5"/><path fill="#fececc" d="M1499.67,971.31c-32.54,45.5-152.61,6.14-166.18-52.51c-4.22-18.46-11.47-50.2-11.47-50.2
										s-28.87-12.64-24.76-42.2c3.44-22.88,22.36-8.42,22.36-8.42l-0.1-25.41l178.26-21.99c0,0,2.79,12.92,6.43,32.82
										c1.76,10.25,3.41,22.64,5.25,35.7C1515.24,886.63,1517.78,946.27,1499.67,971.31z"/><path fill="#eab2b2" d="M1509.46,839.08c-26.09,5.23-58.5,9.56-75.28,8.22c-29.55-2.55-114.24-34.23-114.24-34.23
										l173.12-52.46C1503.89,774.07,1507.62,826.02,1509.46,839.08z" opacity=".5"/><path fill="#201135" d="M1389.23 902.2c-.24 5.28 6.03 9.86 14.01 10.23 7.98.37 14.65-3.6 14.9-8.88.25-5.27-6.02-9.85-14.01-10.23C1396.15 892.95 1389.48 896.93 1389.23 902.2zM1477.9 891.98c-.25 5.27 6.02 9.85 14.01 10.22 7.98.37 14.65-3.6 14.9-8.88.25-5.27-6.03-9.85-14.01-10.22C1484.81 882.72 1478.15 886.7 1477.9 891.98z" opacity=".1"/><path fill="#000141" d="M1468.27 843.82c.76-.09 1.44-.57 1.76-1.32.28-.65 7.06-15.65 28.91-8.97 1.18.35 2.4-.3 2.75-1.46.35-1.16-.3-2.39-1.46-2.75-25.76-7.89-34.17 11.27-34.25 11.46-.47 1.12.05 2.41 1.17 2.89C1467.51 843.82 1467.9 843.87 1468.27 843.82zM1425.9 849.34c.27-.03.54-.12.79-.25 1.07-.58 1.47-1.92.88-2.98-.1-.19-10.36-18.3-38.37-8.67-1.15.39-1.76 1.65-1.36 2.8.4 1.15 1.63 1.77 2.8 1.37 24.54-8.45 32.98 6.46 33.07 6.61C1424.14 849.02 1425.03 849.45 1425.9 849.34zM1457.42 901.06c.76-.09 1.49-.29 2.19-.59 4.47-1.91 5.8-7.37 5.86-7.6.16-.68-.01-1.39-.46-1.92-9.3-11.09-9.18-27.61-9.18-27.77.02-1.22-.96-2.22-2.17-2.23-1.25-.03-2.22.96-2.23 2.17-.01.73-.13 17.44 9.44 29.71-.49 1.22-1.47 2.96-3 3.6-1.42.59-3.3.24-5.55-1.1-1.05-.62-2.4-.27-3.01.78-.62 1.05-.27 2.4.78 3.02C1452.72 900.68 1455.18 901.33 1457.42 901.06z"/><path fill="#fcfaf7" d="M1488.93,926.15c0,0-23.57,14.32-53.09,4.7C1430.91,943.22,1467.68,969.44,1488.93,926.15z"/><path fill="#000141" d="M1477.03 860.65c.82 6.81 5.27 11.88 9.93 11.31 4.66-.56 7.77-6.55 6.95-13.36-.82-6.81-5.27-11.88-9.93-11.31C1479.32 847.86 1476.21 853.84 1477.03 860.65zM1401.09 869.83c.82 6.81 5.27 11.88 9.93 11.31 4.66-.56 7.77-6.54 6.95-13.36-.82-6.81-5.27-11.88-9.93-11.31C1403.37 857.04 1400.26 863.02 1401.09 869.83z"/><path fill="#201135" d="M1460.33,961.03c2.31-0.28,3.77-0.8,3.92-0.86c0.57-0.21,0.86-0.84,0.65-1.41
											c-0.21-0.57-0.85-0.86-1.41-0.66c-0.09,0.04-9.43,3.33-19.04-3.17c-0.52-0.32-1.19-0.2-1.53,0.3
											c-0.34,0.5-0.2,1.19,0.3,1.53C1449.9,961.28,1456.37,961.51,1460.33,961.03z" opacity=".1"/><path fill="#eab2b2" d="M1315.41,823.84c0,0-6.46-6.95-9.56-1.66c-3.08,5.3-1.04,25.43,8.92,32.18c0,0-10.23-18.06-7.31-24.25
									C1310.37,823.91,1318.23,829.05,1315.41,823.84z" opacity=".5"/><path fill="#000141" d="M1501.35,806.83c-3.13-14.86-8.47-23.69-25.58-27.42c-3.27-0.72,15.7,12.65,17.24,32.15
									c-9.25,6.28-20.19,11.62-31.67,15.01c-42.38,12.65-145.52-14.81-145.52-14.81c-13.22-143.14,189.59-105.61,210.85-54.78
									C1531.35,768.1,1517.57,791.67,1501.35,806.83z"/></g><g><path fill="#fff" d="M1447.55,2118.84c86.95-237.02,126.33-486.88,114.13-757.89c-0.51-11.05-8.51-18.96-17.72-17.76
									c-125.09,16.56-259.14,29.67-402.9,39.11c-6.88,0.45-12.73,8.41-13.31,17.78c-13.73,231.79-66.79,450.37-158.2,660.85
									c-3.83,8.82-1.02,17.01,6.42,18.23c156.27,25.76,304.93,44.28,445.99,56.22
									C1432.33,2136.29,1443.91,2128.82,1447.55,2118.84z"/><g opacity=".2"><path fill="#5d74e4" d="M1432.84,2051.08c68.81-206.78,101.74-423.9,96.19-656.76c-115.44,12.74-238.19,22.53-368.72,29.21
												c-13.71,216.64-61.95,421.65-143.78,619.26c91.01,13.58,179.32,24.77,264.94,33.71
												C1333.15,2068.29,1383.59,2059.81,1432.84,2051.08z" opacity=".1"/></g><path fill="#a0c5ff" d="M1429.34,2041.51c67.79-206.54,99.85-423.56,93.56-656.5c-114.76,12.97-236.79,23.03-366.57,30.06
												c-13.02,216.6-60.43,421.46-141.29,618.77c90.61,13.37,178.53,24.41,263.77,33.21
												C1330.2,2058.8,1380.37,2050.28,1429.34,2041.51z"/><path fill="#5d74e4" d="M1522.9,1385.01c-24.93,2.82-50.37,5.44-76,7.98c26.12,57.21,41.68,120.23,21.54,177.49
												c-15.94,45.3-49.19,71.95-93.64,86.32c-12.64,4.09-30.19,8.66-38.81,19.85c-0.21,0.27-0.32,0.34-0.49,0.55
												c0,0.01,0.01,0.01,0.01,0.02c0.22,1.73,3.57,6.36,4.12,7.38c10.79,19.87,18.85,40.7,21.43,63.3
												c4.55,39.87-13.37,74.37-45.7,97.29c-43.58,30.9-100.71,55.37-153.99,61.1c-32.17,3.46-64.67-1.01-96.22-9.44
												c-15.01,46.07-31.57,91.76-50.11,136.99c90.61,13.38,178.53,24.41,263.78,33.21c51.39-8.25,101.56-16.77,150.53-25.54
												C1497.13,1834.97,1529.2,1617.95,1522.9,1385.01z" opacity=".1"/><path fill="#a0c5ff" d="M1429.34,2041.51c-8.7-10.54-17.46-21.2-26.3-32.01c-40.16,19.06-81.55,38.25-124.23,57.55
												C1330.2,2058.8,1380.37,2050.28,1429.34,2041.51z"/><path fill="#000141" d="M967.84,1932.89v79.2c0,0,231.53,70.03,373.16-39.6c141.63-109.63,137.42-158.89,137.42-158.89
								s69.64,28.2,66.22-3.6c-3.42-31.79-76.23-51.64-105.66-45.07C1409.55,1771.51,967.84,1932.89,967.84,1932.89z" opacity=".25"/><g><path fill="#fececc" d="M1477.05,1748.51c-15.76,3.67-84.45,2.15-91.41,9.4c0,0-3.3,37.86,6.26,44.29
									c10.42,2.46,89.22-6.43,89.22-6.43s9.34,8.47,29.72,12.95c5.43,1.2,10.93,2.09,16.17,2.48v0.02c0.02,0,0.02,0,0.05,0.02
									c0.26,0.03,1.6,0.28,3.56,0.59h0.02c7.08,1.12,22.29,3.18,24.73,0.38c3.08-3.5,4.39-8.52,1.42-11.51
									c0.13-0.15,0.24-0.32,0.37-0.47c1.85-0.22,6.5-1.16,8.36-4.83c1.83-3.57-0.39-6.46-1.48-7.59c0.06-0.19,0.14-0.38,0.2-0.56
									c1.54-0.1,4.91-0.57,5.78-2.76c1.1-2.83,2.02-7.75-2.25-10.12c0.02-0.06,0.02-0.14,0.04-0.2c0.9-0.46,4.38-2.52,3.88-7.52
									c-0.57-5.73-3.25-6.53-3.25-6.53s3.47-4.74,2.72-8.74c-0.74-4.02-4.34-8.94-13.46-10.15l-0.08,0.01
									c-0.88-0.34-1.82-0.65-2.83-0.8c-4.12-0.67-8.18-1.04-12.04-1.19c-0.79-0.02-1.57-0.03-2.36-0.06
									c-15.03-0.28-26.53,2.52-26.53,2.52s21.39-21.42,13.18-33.25C1518.86,1696.64,1492.83,1744.83,1477.05,1748.51z"/><path fill="#fff" d="M1542.76,1739.26c6.24,24.99-9.15,58.98-15.74,71.93c-0.02,0-0.02,0.02-0.02,0.02h0.02
									c0.02,0,0.02,0,0.05,0.02c1.05,0.08,2.25,0.29,3.56,0.59h0.02c7.08,1.12,22.29,3.18,24.73,0.38
									c3.08-3.5,4.39-8.52,1.42-11.51c0.13-0.15,0.24-0.32,0.37-0.47c1.85-0.22,6.5-1.16,8.36-4.83c1.83-3.57-0.39-6.46-1.48-7.59
									c0.06-0.19,0.14-0.38,0.2-0.56c1.54-0.1,4.91-0.57,5.78-2.76c1.1-2.83,2.02-7.75-2.25-10.12c0.02-0.06,0.02-0.14,0.04-0.2
									c0.9-0.46,4.38-2.52,3.88-7.52c-0.57-5.73-3.25-6.53-3.25-6.53s3.47-4.74,2.72-8.74c-0.74-4.02-4.34-8.94-13.46-10.15
									l-0.08,0.01c-0.88-0.34-1.82-0.65-2.83-0.8C1550.67,1739.78,1546.61,1739.41,1542.76,1739.26z" opacity=".2"/><path fill="#ff97a6" d="M1556.14 1799.18c-3.07-1.82-6.24-3.3-9.53-4.53-3.29-1.22-6.7-2.12-10.17-2.48 3.43.62 6.73 1.76 9.87 3.2 3.13 1.44 6.17 3.16 8.96 5.11l.02.01c.35.25.84.17 1.09-.19.25-.35.16-.84-.19-1.08C1556.17 1799.2 1556.15 1799.19 1556.14 1799.18zM1567.44 1758.94c-3.44-1.87-6.98-3.37-10.63-4.58-3.66-1.21-7.44-2.05-11.25-2.3 3.79.54 7.44 1.65 10.95 3.1 3.49 1.45 6.9 3.21 10.02 5.23l.03.02c.39.26.93.15 1.18-.25.26-.4.15-.93-.25-1.18C1567.48 1758.96 1567.46 1758.95 1567.44 1758.94zM1566.67 1772.78c-3.43-2.04-6.98-3.69-10.67-5.07-3.68-1.36-7.49-2.37-11.37-2.77 3.84.69 7.53 1.97 11.04 3.58 3.5 1.61 6.91 3.53 10.02 5.71l.03.02c.39.28.94.18 1.21-.21.28-.39.18-.94-.21-1.21C1566.71 1772.81 1566.69 1772.79 1566.67 1772.78zM1563.22 1786.04c-3.43-2.03-6.97-3.69-10.65-5.06-3.67-1.36-7.48-2.36-11.35-2.76 3.83.69 7.51 1.96 11.02 3.57 3.5 1.61 6.89 3.52 10 5.7l.03.02c.4.28.94.18 1.21-.21.28-.39.18-.94-.21-1.21C1563.25 1786.06 1563.23 1786.05 1563.22 1786.04z"/><path fill="#fff" d="M1521.8,1708.1c0,0-6.07,9.55-8.1,9.69c-2.03,0.14-2.68-2.25-2.68-2.25S1518.22,1707.4,1521.8,1708.1z
									" opacity=".2"/></g><path fill="#5d74e4" d="M1138.35,1149.76c0,0-376.91,294.92-291.22,706.7c19.48,93.6,238.67-36.18,220.44-81.29
								C953.06,1491.83,1138.35,1149.76,1138.35,1149.76z"/><path fill="#000141" d="M1057.9,1748.84c-35.59-105.7-32.49-217.68-14.93-315.88c0-0.06,0-0.11,0-0.17
								c0.17-13.97,1.42-27.9,2.76-41.8c-10.38,9.5-18.62,21.18-25.97,33.11c-8.56,13.91-15.92,28.51-23.56,42.93
								c-3.78,7.14-7.73,14.13-10.48,21.76c-2.82,7.82-4.54,15.97-5.3,24.24c-1.44,15.78,0.65,31.57,3.28,47.12
								c4.99,29.57,13.94,61.92,0.64,90.54c-5.73,12.33-14.17,23.05-22.28,33.86c-9.38,12.5-17.94,25.53-24.8,39.6
								c-13.73,28.18-21.17,59.99-15.3,91.08c13.86-14.03,29.22-26.5,46.14-36.69C995.43,1762.11,1026.25,1752.17,1057.9,1748.84z" opacity=".25"/><path fill="#5d74e4" d="M1458.1,1735.99c0,0,19.77,57.72,0.16,79.78c-19.6,22.06-396.15,151.7-501.63,129.68
								c-187.84-39.22-125.17-192.01,43.94-221.43C1169.68,1694.61,1458.1,1735.99,1458.1,1735.99z"/></g><path fill="#a0c5ff" d="M855.91,2197.98h951.32c2.6,0,4.71-2.11,4.71-4.71c0-2.6-2.11-4.71-4.71-4.71H855.91
						c-2.6,0-4.71,2.11-4.71,4.71C851.2,2195.87,853.31,2197.98,855.91,2197.98z"/></g><g><path fill="#5d74e4" d="M2332.52 722.77c0 20.12-12.57 32.69-32.14 32.69-19.58 0-32.15-12.57-32.15-32.69 0-20.22 12.57-32.69 32.15-32.69C2319.95 690.08 2332.52 702.55 2332.52 722.77zM2315.76 722.77c0-13.39-5.92-20.67-15.39-20.67-9.47 0-15.39 7.28-15.39 20.67 0 13.29 5.92 20.67 15.39 20.67C2309.84 743.44 2315.76 736.06 2315.76 722.77zM2386.08 754.18l-22.86-41.53c.55 6.38.55 11.93.55 15.57v25.95h-16.39v-62.83h20.4l23.86 43.35c-.46-6.38-.55-12.84-.55-16.49v-26.86h16.39v62.83H2386.08zM2472.89 754.18h-48.17v-62.83h16.39v48.99h31.78V754.18zM2486.93 754.18v-62.83h16.39v62.83H2486.93zM2559.24 754.18l-22.86-41.53c.55 6.38.55 11.93.55 15.57v25.95h-16.39v-62.83h20.4l23.86 43.35c-.46-6.38-.55-12.84-.55-16.49v-26.86h16.39v62.83H2559.24zM2646.04 754.18h-48.17v-62.83h47.26v12.75h-30.87v12.2h29.05v12.75h-29.05v12.38h31.78V754.18zM2740.5 721.95c0 19.67-12.02 30.23-26.59 31.87-3.19.36-4.64.36-8.01.36h-23.77v-62.83h23.77c3.37 0 4.82 0 8.01.36C2728.48 693.35 2740.5 702.28 2740.5 721.95zM2723.38 722.22c0-11.2-5.65-17.21-13.84-17.94-2.09-.18-3.55-.18-5.92-.18h-5.1v37.34h5.1c2.37 0 3.83 0 5.92-.18C2717.73 740.53 2723.38 733.42 2723.38 722.22zM2817.28 722.77c0 20.12-12.57 32.69-32.15 32.69-19.58 0-32.15-12.57-32.15-32.69 0-20.22 12.57-32.69 32.15-32.69C2804.71 690.08 2817.28 702.55 2817.28 722.77zM2800.53 722.77c0-13.39-5.92-20.67-15.39-20.67-9.47 0-15.39 7.28-15.39 20.67 0 13.29 5.92 20.67 15.39 20.67C2794.61 743.44 2800.53 736.06 2800.53 722.77zM2889.24 712.02l.09.91h-16.39l-.18-.91c-1.37-6.74-5.46-9.92-12.11-9.92-7.83 0-13.75 6.56-13.75 20.12 0 15.85 6.56 21.22 13.84 21.22 6.38 0 10.47-3.92 11.84-10.84l.18-.91h16.39l-.09.91c-1.55 15.12-13.11 22.86-28.87 22.86-16.85 0-30.41-10.93-30.41-32.24 0-21.86 14.02-33.15 31.05-33.15C2878.77 690.08 2887.97 699.64 2889.24 712.02zM2934.79 704.1v50.09h-16.39V704.1H2898v-12.75h57.19v12.75H2934.79zM3026.51 722.77c0 20.12-12.57 32.69-32.15 32.69-19.58 0-32.15-12.57-32.15-32.69 0-20.22 12.57-32.69 32.15-32.69C3013.94 690.08 3026.51 702.55 3026.51 722.77zM3009.75 722.77c0-13.39-5.92-20.67-15.39-20.67-9.47 0-15.39 7.28-15.39 20.67 0 13.29 5.92 20.67 15.39 20.67C3003.83 743.44 3009.75 736.06 3009.75 722.77zM3095.1 754.18h-17.85c-1.46-4.46-2.37-8.1-2.91-12.57-.82-6.92-3.55-10.93-7.74-11.2-1.82-.09-3.37-.09-5.19-.09h-3.64v23.86h-16.39v-62.83h24.95c3.92 0 6.46.09 9.83.45 9.11 1.09 17.03 5.55 17.03 16.67 0 7.92-4.28 13.2-12.66 15.66 6.56 2.37 8.92 7.2 9.83 14.75C3091.18 745.99 3092.64 750.45 3095.1 754.18zM3063.68 718.49c1.73 0 3.19 0 4.37-.09 4.19-.36 8.01-1.82 8.01-7.1 0-5.28-3.37-6.74-7.56-7.1-1.18-.09-2.64-.09-4.37-.09h-6.37v14.39H3063.68z"/></g><g><path fill="#a0c5ff" d="M1717.96,894.64v-67.89h-1.21c-32.44,0-58.84-26.39-58.84-58.83v-34.44c0-32.44,26.39-58.83,58.84-58.83
							h244.42c32.44,0,58.83,26.39,58.83,58.83v34.44c0,32.44-26.4,58.83-58.83,58.83h-168.6L1717.96,894.64z M1716.75,681.62
							c-28.59,0-51.85,23.26-51.85,51.85v34.44c0,28.59,23.26,51.85,51.85,51.85h8.19v59.08l64.92-59.08h171.3
							c28.59,0,51.85-23.26,51.85-51.85v-34.44c0-28.59-23.26-51.85-51.85-51.85H1716.75z"/><path fill="#a0c5ff" d="M1820.19 753.08c.67 10.37 9.61 18.23 19.98 17.56 10.37-.66 18.23-9.61 17.56-19.97-.67-10.37-9.61-18.23-19.97-17.56C1827.39 733.77 1819.52 742.71 1820.19 753.08zM1892.84 751.88c0 10.39 8.42 18.81 18.81 18.81 10.39 0 18.81-8.42 18.81-18.81 0-10.39-8.42-18.81-18.81-18.81C1901.26 733.07 1892.84 741.49 1892.84 751.88zM1747.5 753.08c.66 10.37 9.61 18.23 19.97 17.56 10.37-.66 18.23-9.61 17.57-19.97-.67-10.37-9.61-18.23-19.98-17.56C1754.7 733.77 1746.83 742.71 1747.5 753.08z"/></g><path fill="#000141" d="M535.28,1053.16v41.82c0,0,33.9,9.9,69.46-17.15v-46.06L535.28,1053.16z" opacity=".2"/><path fill="#a0c5ff" d="M503.96,1074.66c-42.73,0-85.46-16.26-117.99-48.8c-65.05-65.06-65.05-170.93,0-235.98
				c65.05-65.07,170.93-65.07,235.98,0c8.32,8.32,8.32,21.79,0,30.11c-8.32,8.32-21.8,8.32-30.11,0
				c-23.47-23.47-54.69-36.4-87.88-36.4c-33.19,0-64.41,12.93-87.88,36.4c-48.45,48.46-48.45,127.3,0,175.76
				c23.47,23.47,54.69,36.4,87.88,36.4c33.19,0,64.41-12.93,87.88-36.4c38.04-38.05,47.33-95.86,23.12-143.86
				c-5.3-10.5-1.08-23.31,9.41-28.61c10.51-5.36,23.3-1.09,28.61,9.41c32.53,64.46,20.06,142.09-31.02,193.17
				C589.42,1058.39,546.68,1074.66,503.96,1074.66z"/><path fill="#fff" d="M600.43,811.39c53.28,53.28,53.28,139.67,0,192.95c-53.28,53.28-139.67,53.28-192.95,0
				c-53.28-53.28-53.28-139.67,0-192.95C460.76,758.1,547.14,758.1,600.43,811.39z"/><path fill="#a0c5ff" d="M548.61,892.53v67.75c0,11.31-9.13,20.45-20.39,20.45h-46.94c-11.25,0-20.38-9.14-20.38-20.45v-67.75
				c0-0.73,0.06-1.39,0.12-2.06c0.36-3.87,1.88-7.56,4.3-10.58l23.83-30.25h31.22l23.83,30.25c2.42,3.02,3.93,6.72,4.3,10.58
				C548.55,891.14,548.61,891.81,548.61,892.53z" opacity=".54"/><path fill="#5d74e4" d="M548.61,892.53v59.16H460.9l0.12-61.22h87.47C548.55,891.14,548.61,891.81,548.61,892.53z"/><path fill="#a0c5ff" d="M525.35,827.21v15.76c0,3.73-3,6.74-6.74,6.74h-27.84c-3.73,0-6.74-3.01-6.74-6.74v-16.04
				c0.17-3.62,3.12-6.46,6.74-6.46h27.84C522.35,820.47,525.35,823.48,525.35,827.21z"/><rect width="27.67" height="1.39" x="484.04" y="826.93" fill="#fff"/><rect width="22.5" height="1.39" x="484.04" y="831.27" fill="#fff"/><rect width="27.67" height="1.39" x="484.04" y="835.95" fill="#fff"/><rect width="22.5" height="1.45" x="484.04" y="840.29" fill="#fff"/><path fill="#fff" d="M532.98,890.47v61.22h-5.36v-59.16c0-0.73-0.04-1.39-0.08-2.06H532.98z"/><g><path fill="#000141" d="M3369.32,1554.78v46.28c0,0-21.55,13.32-68.78,0v-57.72L3369.32,1554.78z" opacity=".2"/><path fill="#a0c5ff" d="M3332.52,1578.28c-44,0-88-16.75-121.49-50.25c-66.98-66.99-66.98-176,0-242.98c66.98-67,176-67,242.98,0
					c8.56,8.56,8.56,22.44,0,31.01c-8.56,8.57-22.44,8.57-31.01,0c-24.17-24.17-56.31-37.47-90.48-37.47
					c-34.18,0-66.32,13.31-90.48,37.47c-49.88,49.89-49.88,131.07,0,180.97c24.17,24.17,56.31,37.47,90.48,37.47
					c34.17,0,66.32-13.31,90.48-37.47c39.16-39.17,48.74-98.7,23.8-148.13c-5.46-10.81-1.12-24,9.69-29.45
					c10.83-5.52,24-1.12,29.46,9.69c33.49,66.37,20.65,146.3-31.94,198.9C3420.51,1561.52,3376.51,1578.28,3332.52,1578.28z"/><linearGradient id="a" x1="3192.03" x2="3472.995" y1="1406.537" y2="1406.537" gradientUnits="userSpaceOnUse"><stop offset="0" stop-color="#d1f4ff"/><stop offset=".418" stop-color="#fbfefe"/><stop offset="1" stop-color="#d1f4ff"/></linearGradient><path fill="url(#a)" d="M3431.85,1307.2c54.86,54.86,54.86,143.81,0,198.67c-54.86,54.86-143.81,54.86-198.67,0
					c-54.86-54.86-54.86-143.81,0-198.67C3288.04,1252.34,3376.99,1252.34,3431.85,1307.2z"/><path fill="#5d74e4" d="M3383.31,1348l-23.51,78.48c-3.77,12.6-17.05,19.85-29.67,16.07c-12.6-3.78-19.7-17.13-15.93-29.74
					l23.51-78.47c3.78-12.6,17.06-19.85,29.66-16.07C3379.98,1322.04,3387.09,1335.4,3383.31,1348z"/><path fill="#a0c5ff" d="M3383.31,1348l-11.56,38.58l-45.6-13.66l11.56-38.58c3.78-12.6,17.06-19.85,29.66-16.07
					C3379.98,1322.04,3387.09,1335.4,3383.31,1348z"/><polygon fill="#baf1eb" points="3326.15 1372.92 3370.08 1392.27 3371.75 1386.58" opacity=".44"/><path fill="#fff" d="M3369.33,1323.36c4,2.4,7.49,5.92,9.62,10.41c2.55,4.53,1.03,10.43-0.15,14.55
					c-2.19,9.05-4.62,18.03-7.2,26.96c-5.14,17.88-10.69,35.63-17.07,53.13l-0.09,0.25l-0.04,0.06c-2.16,3.45-5.01,6.21-8.53,8.06
					c-3.51,1.86-7.77,2.11-11.2,0.61c3.7,0.66,7.37-0.2,10.2-2.27c2.78-2.09,5.02-5.03,6.58-7.97l-0.13,0.3
					c4.31-18.13,9.43-36.01,14.97-53.76c2.76-8.88,5.67-17.72,8.81-26.48c1.75-4.55,3.01-8.28,1.63-12.62
					C3375.53,1330.39,3372.67,1326.58,3369.33,1323.36z" opacity=".49"/><path fill="#5d74e4" d="M3328.22,1386.65v81.92c0,13.16-10.64,23.91-23.8,23.91c-13.16,0-23.81-10.75-23.81-23.91v-81.92
					c0-13.16,10.64-23.91,23.81-23.91C3317.58,1362.74,3328.22,1373.49,3328.22,1386.65z"/><path fill="#a0c5ff" d="M3328.22,1386.65v40.27h-47.6v-40.27c0-13.16,10.64-23.91,23.81-23.91
					C3317.58,1362.74,3328.22,1373.49,3328.22,1386.65z"/><polygon fill="#baf1eb" points="3280.62 1426.92 3328.25 1432.85 3328.22 1426.92" opacity=".44"/><path fill="#fff" d="M3307.76,1367.06c4.53,1.15,8.87,3.51,12.2,7.21c3.74,3.6,3.97,9.69,4.03,13.98
					c0.49,9.3,0.75,18.6,0.84,27.9c0.21,18.6-0.01,37.19-1.09,55.79l-0.02,0.27l-0.02,0.06c-1.08,3.93-3.01,7.39-5.86,10.17
					c-2.82,2.79-6.83,4.25-10.55,3.8c3.74-0.43,7.01-2.31,9.12-5.11c2.07-2.8,3.37-6.26,4.01-9.52l-0.03,0.33
					c-1.08-18.6-1.31-37.2-1.1-55.79c0.1-9.3,0.35-18.6,0.84-27.9c0.38-4.86,0.51-8.79-2.05-12.55
					C3315.71,1372.01,3311.88,1369.18,3307.76,1367.06z" opacity=".49"/><path fill="#5d74e4" d="M3368,1478.63c-4.02,6.37-11.51,9.12-18.39,7.48c-0.81-0.15-1.57-0.36-2.37-0.68
					c-0.95-0.34-1.96-0.88-2.87-1.44c-1.03-0.65-1.92-1.39-2.76-2.19c-0.62-0.58-1.15-1.18-1.63-1.84
					c-4.28-5.49-4.95-13.28-0.97-19.59c3.94-6.25,11.3-9.08,18.09-7.59c0.81,0.15,1.57,0.36,2.37,0.68c1.08,0.42,2.13,0.9,3.16,1.55
					c0.9,0.57,1.83,1.24,2.54,1.96c0.63,0.58,1.15,1.18,1.63,1.84C3371.26,1464.32,3372.01,1472.26,3368,1478.63z"/><path fill="#a0c5ff" d="M3366.81,1458.81c0,0-18.77,26.95-19.57,26.63c-0.95-0.34-1.96-0.88-2.87-1.44
					c-1.03-0.65-1.92-1.39-2.76-2.19c-0.62-0.58,15.49-29.02,15.49-29.02c0.81,0.15,1.57,0.36,2.37,0.68
					c1.08,0.42,2.13,0.9,3.16,1.55c0.9,0.57,1.83,1.24,2.54,1.96C3365.81,1457.55,3366.33,1458.15,3366.81,1458.81z"/><path fill="#fff" d="M3365.18,1456.98l-17.94,28.46c-0.95-0.34-1.96-0.88-2.87-1.44c-1.03-0.65-1.92-1.39-2.76-2.19
					l17.86-28.34c1.08,0.42,2.13,0.9,3.16,1.55C3363.54,1455.58,3364.47,1456.25,3365.18,1456.98z" opacity=".49"/><path fill="#5d74e4" d="M3409.32,1442.1c1.5,9.38-3.31,18.21-11.2,22.38c-0.89,0.54-1.79,0.97-2.8,1.32
					c-1.19,0.48-2.59,0.8-3.92,1.01c-1.52,0.24-2.97,0.28-4.43,0.22c-1.08-0.03-2.06-0.16-3.07-0.38
					c-8.61-1.64-15.73-8.48-17.2-17.76c-1.46-9.19,3.15-17.98,10.83-22.22c0.89-0.54,1.79-0.97,2.8-1.32
					c1.37-0.51,2.77-0.93,4.28-1.17c1.33-0.2,2.77-0.33,4.04-0.25c1.08,0.03,2.06,0.16,3.07,0.39
					C3400.51,1425.83,3407.83,1432.72,3409.32,1442.1z"/><path fill="#a0c5ff" d="M3391.72,1424.32c0,0,4.61,41.13,3.6,41.48c-1.19,0.48-2.59,0.8-3.92,1.01c-1.52,0.24-2.97,0.28-4.43,0.22
					c-1.08-0.03-9.44-40.36-9.44-40.36c0.89-0.54,1.79-0.97,2.8-1.32c1.37-0.51,2.77-0.93,4.28-1.17c1.33-0.2,2.77-0.33,4.04-0.25
					C3389.73,1423.96,3390.72,1424.09,3391.72,1424.32z"/><path fill="#fff" d="M3388.66,1423.93l6.67,41.87c-1.19,0.48-2.59,0.8-3.92,1.01c-1.52,0.24-2.97,0.28-4.43,0.22l-6.64-41.68
					c1.37-0.51,2.77-0.93,4.28-1.17C3385.94,1423.98,3387.38,1423.85,3388.66,1423.93z" opacity=".49"/></g><g><path fill="#a0c5ff" d="M3433.46 992.78c3.15 0 5.7-2.55 5.7-5.7 0-3.15-2.55-5.7-5.7-5.7-3.15 0-5.7 2.55-5.7 5.7C3427.76 990.23 3430.32 992.78 3433.46 992.78zM3433.46 1036.48c3.15 0 5.7-2.55 5.7-5.7 0-3.15-2.55-5.7-5.7-5.7-3.15 0-5.7 2.55-5.7 5.7C3427.76 1033.93 3430.32 1036.48 3433.46 1036.48zM3433.46 1080.18c3.15 0 5.7-2.55 5.7-5.7 0-3.15-2.55-5.7-5.7-5.7-3.15 0-5.7 2.55-5.7 5.7C3427.76 1077.63 3430.32 1080.18 3433.46 1080.18zM3433.46 1123.88c3.15 0 5.7-2.55 5.7-5.7 0-3.15-2.55-5.7-5.7-5.7-3.15 0-5.7 2.55-5.7 5.7C3427.76 1121.33 3430.32 1123.88 3433.46 1123.88zM3458.06 969.93c3.15 0 5.7-2.55 5.7-5.7 0-3.15-2.55-5.7-5.7-5.7-3.15 0-5.7 2.55-5.7 5.7C3452.36 967.38 3454.92 969.93 3458.06 969.93zM3458.06 1013.64c3.15 0 5.7-2.55 5.7-5.7 0-3.15-2.55-5.7-5.7-5.7-3.15 0-5.7 2.55-5.7 5.7C3452.36 1011.08 3454.92 1013.64 3458.06 1013.64zM3458.06 1057.34c3.15 0 5.7-2.55 5.7-5.7 0-3.15-2.55-5.7-5.7-5.7-3.15 0-5.7 2.55-5.7 5.7C3452.36 1054.79 3454.92 1057.34 3458.06 1057.34zM3458.06 1101.04c3.15 0 5.7-2.55 5.7-5.7 0-3.15-2.55-5.7-5.7-5.7-3.15 0-5.7 2.55-5.7 5.7C3452.36 1098.49 3454.92 1101.04 3458.06 1101.04z"/></g><g><path fill="#a0c5ff" d="M364.78 2059.48c3.96 0 7.16-3.21 7.16-7.16 0-3.96-3.21-7.16-7.16-7.16-3.95 0-7.16 3.21-7.16 7.16C357.62 2056.28 360.82 2059.48 364.78 2059.48zM364.78 2114.39c3.96 0 7.16-3.21 7.16-7.16 0-3.95-3.21-7.16-7.16-7.16-3.95 0-7.16 3.21-7.16 7.16C357.62 2111.19 360.82 2114.39 364.78 2114.39zM364.78 2169.3c3.96 0 7.16-3.21 7.16-7.16 0-3.96-3.21-7.16-7.16-7.16-3.95 0-7.16 3.21-7.16 7.16C357.62 2166.09 360.82 2169.3 364.78 2169.3zM364.78 2224.21c3.96 0 7.16-3.21 7.16-7.16 0-3.96-3.21-7.16-7.16-7.16-3.95 0-7.16 3.21-7.16 7.16C357.62 2221 360.82 2224.21 364.78 2224.21zM395.69 2030.78c3.96 0 7.16-3.21 7.16-7.16 0-3.95-3.21-7.16-7.16-7.16-3.95 0-7.16 3.21-7.16 7.16C388.53 2027.57 391.73 2030.78 395.69 2030.78zM395.69 2085.69c3.96 0 7.16-3.21 7.16-7.16s-3.21-7.16-7.16-7.16c-3.95 0-7.16 3.21-7.16 7.16S391.73 2085.69 395.69 2085.69zM395.69 2140.6c3.96 0 7.16-3.21 7.16-7.16 0-3.96-3.21-7.16-7.16-7.16-3.95 0-7.16 3.21-7.16 7.16C388.52 2137.39 391.73 2140.6 395.69 2140.6zM395.69 2195.51c3.96 0 7.16-3.21 7.16-7.16 0-3.95-3.21-7.16-7.16-7.16-3.95 0-7.16 3.21-7.16 7.16C388.52 2192.3 391.73 2195.51 395.69 2195.51z"/></g></svg>